<?xml version="1.0" standalone="no"?>
<!DOCTYPE svg PUBLIC "-//W3C//DTD SVG 20010904//EN"
 "http://www.w3.org/TR/2001/REC-SVG-20010904/DTD/svg10.dtd">
<svg version="1.0" xmlns="http://www.w3.org/2000/svg"
 width="260.000000pt" height="260.000000pt" viewBox="0 0 260.000000 260.000000"
 preserveAspectRatio="xMidYMid meet">
<metadata>
Created by potrace 1.14, written by Peter Selinger 2001-2017
</metadata>
<g transform="translate(0.000000,260.000000) scale(0.100000,-0.100000)"
fill="#000000" stroke="none">
<path d="M1085 2584 c-467 -84 -848 -406 -1009 -852 -69 -194 -91 -468 -53
-664 20 -101 75 -266 117 -348 120 -237 343 -460 580 -580 82 -41 247 -97 348
-117 129 -25 356 -23 489 6 249 52 463 164 641 335 418 401 522 1016 259 1530
-187 367 -542 625 -949 691 -115 18 -316 18 -423 -1z m451 -933 c-2 -3 -96
-171 -210 -373 l-208 -367 -33 16 c-30 14 -33 19 -23 37 9 17 390 693 405 718
5 9 74 -23 69 -31z m-621 -81 c16 -33 27 -62 24 -64 -2 -2 -78 -40 -168 -83
l-165 -79 167 -81 c92 -45 167 -85 167 -88 0 -3 -13 -32 -30 -65 l-30 -59
-122 58 c-68 32 -174 84 -236 115 l-113 57 3 65 3 66 225 109 c124 59 230 109
236 109 6 0 23 -27 39 -60z m1058 -56 l217 -106 0 -64 0 -64 -181 -91 c-100
-50 -206 -101 -235 -114 l-54 -24 -30 59 c-17 33 -30 62 -30 65 0 4 75 43 168
87 l167 81 -160 78 c-88 43 -164 80 -170 82 -6 2 3 31 20 66 25 52 33 61 50
57 12 -3 119 -53 238 -112z"/>
</g>
</svg>
