<?xml version="1.0" standalone="no"?>
<!DOCTYPE svg PUBLIC "-//W3C//DTD SVG 20010904//EN"
 "http://www.w3.org/TR/2001/REC-SVG-20010904/DTD/svg10.dtd">
<svg version="1.0" xmlns="http://www.w3.org/2000/svg"
 width="260.000000pt" height="260.000000pt" viewBox="0 0 260.000000 260.000000"
 preserveAspectRatio="xMidYMid meet">
<metadata>
Created by potrace 1.14, written by Peter Selinger 2001-2017
</metadata>
<g transform="translate(0.000000,260.000000) scale(0.100000,-0.100000)"
fill="#000000" stroke="none">
<path d="M1085 2584 c-629 -110 -1085 -650 -1085 -1284 0 -718 582 -1300 1300
-1300 718 0 1300 582 1300 1300 0 562 -359 1058 -893 1235 -56 18 -144 40
-196 49 -115 19 -316 19 -426 0z m425 -949 c17 -9 30 -19 30 -24 0 -9 -407
-731 -420 -745 -12 -12 -65 8 -65 25 0 14 416 759 423 759 2 0 16 -7 32 -15z
m-610 -95 c16 -33 30 -63 30 -68 0 -5 -78 -46 -172 -92 l-173 -83 169 -83 c93
-46 171 -85 173 -88 7 -7 -56 -126 -67 -126 -5 0 -116 53 -245 117 l-235 118
0 63 0 63 243 119 c133 65 243 119 244 119 2 1 16 -26 33 -59z m1315 -244 l0
-67 -241 -118 -241 -118 -32 65 c-18 35 -31 66 -29 67 2 2 79 41 172 87 l169
85 -171 83 c-95 46 -172 85 -172 87 0 2 13 32 29 68 l30 65 243 -118 243 -118
0 -68z"/>
</g>
</svg>
